HIERARCHY
ROOT Hips
{
	OFFSET	0.00	0.00	0.00
	CHANNELS 6 Xposition Yposition Zposition Zrotation Xrotation Yrotation
	JOINT LeftUpLeg
	{
		OFFSET	 0.126116	-0.065224	 0.014019
		CHANNELS 3 Zrotation Xrotation Yrotation
		JOINT LeftLeg
		{
			OFFSET	 0.000000	 0.569914	 0.000000
			CHANNELS 3 Zrotation Xrotation Yrotation
			JOINT LeftFoot
			{
				OFFSET	 0.000000	 0.544423	 0.000000
				CHANNELS 3 Zrotation Xrotation Yrotation
				JOINT LeftToeBase
				{
					OFFSET	 0.000000	 0.207117	 0.000000
					CHANNELS 3 Zrotation Xrotation Yrotation
					End Site
					{
						OFFSET	 0.000000	 0.207117	 0.000000
					}
				}
			}
		}
	}
	JOINT RightUpLeg
	{
		OFFSET	-0.124023	-0.065224	 0.008373
		CHANNELS 3 Zrotation Xrotation Yrotation
		JOINT RightLeg
		{
			OFFSET	 0.000000	 0.570047	 0.000000
			CHANNELS 3 Zrotation Xrotation Yrotation
			JOINT RightFoot
			{
				OFFSET	 0.000000	 0.544354	 0.000000
				CHANNELS 3 Zrotation Xrotation Yrotation
				JOINT RightToeBase
				{
					OFFSET	 0.000000	 0.207540	 0.000000
					CHANNELS 3 Zrotation Xrotation Yrotation
					End Site
					{
						OFFSET	 0.000000	 0.207540	 0.000000
					}
				}
			}
		}
	}
	JOINT Spine
	{
		OFFSET	 0.000184	 0.117403	 0.007763
		CHANNELS 3 Zrotation Xrotation Yrotation
		JOINT Spine1
		{
			OFFSET	 0.000000	 0.137269	 0.000000
			CHANNELS 3 Zrotation Xrotation Yrotation
			JOINT Spine2
			{
				OFFSET	 0.000000	 0.156879	 0.000000
				CHANNELS 3 Zrotation Xrotation Yrotation
				JOINT LeftShoulder
				{
					OFFSET	 0.080501	 0.160143	 0.002496
					CHANNELS 3 Zrotation Xrotation Yrotation
					JOINT LeftArm
					{
						OFFSET	 0.000000	 0.164363	 0.000000
						CHANNELS 3 Zrotation Xrotation Yrotation
						JOINT LeftForeArm
						{
							OFFSET	 0.000000	 0.364576	 0.000000
							CHANNELS 3 Zrotation Xrotation Yrotation
							JOINT LeftHand
							{
								OFFSET	 0.000000	 0.360812	 0.000000
								CHANNELS 3 Zrotation Xrotation Yrotation
								JOINT LeftHandIndex1
								{
									OFFSET	 0.000000	 0.086006	 0.000000
									CHANNELS 3 Zrotation Xrotation Yrotation
									JOINT LeftHandIndex2
									{
										OFFSET	 0.000000	 0.047237	 0.000000
										CHANNELS 3 Zrotation Xrotation Yrotation
										JOINT LeftHandIndex3
										{
											OFFSET	-0.004284	 0.038165	 0.000551
											CHANNELS 3 Zrotation Xrotation Yrotation
											End Site
											{
												OFFSET	-0.004284	 0.038165	 0.000551
											}
										}
									}
								}
							}
						}
					}
				}
				JOINT Neck
				{
					OFFSET	 0.000000	 0.176489	 0.000000
					CHANNELS 3 Zrotation Xrotation Yrotation
					JOINT Head
					{
						OFFSET	 0.000000	 0.077941	 0.001747
						CHANNELS 3 Zrotation Xrotation Yrotation
						End Site
						{
							OFFSET	 0.000000	 0.077941	 0.001747
						}
					}
				}
				JOINT RightShoulder
				{
					OFFSET	-0.080363	 0.159706	-0.000306
					CHANNELS 3 Zrotation Xrotation Yrotation
					JOINT RightArm
					{
						OFFSET	 0.000000	 0.164196	 0.000000
						CHANNELS 3 Zrotation Xrotation Yrotation
						JOINT RightForeArm
						{
							OFFSET	 0.000000	 0.365611	 0.000000
							CHANNELS 3 Zrotation Xrotation Yrotation
							JOINT RightHand
							{
								OFFSET	 0.000000	 0.360648	 0.000000
								CHANNELS 3 Zrotation Xrotation Yrotation
								JOINT RightHandIndex1
								{
									OFFSET	 0.000000	 0.069977	 0.000000
									CHANNELS 3 Zrotation Xrotation Yrotation
									JOINT RightHandIndex2
									{
										OFFSET	 0.000000	 0.052305	 0.000000
										CHANNELS 3 Zrotation Xrotation Yrotation
										JOINT RightHandIndex3
										{
											OFFSET	 0.009002	 0.042196	 0.000782
											CHANNELS 3 Zrotation Xrotation Yrotation
											End Site
											{
												OFFSET	 0.009002	 0.042196	 0.000782
											}
										}
									}
								}
							}
						}
					}
				}
			}
		}
	}
}
MOTION
Frames:    8
Frame Time: 0.03333334
 0.456328	 1.242333	 0.545186	 1.839236	-28.043250	-172.955200	 179.600700	 47.537570	-11.580350	 6.745431	-23.852120	 16.429890	 34.402700	 61.995830	-25.485500	 1.292262	 28.425850	-2.713146	 169.170700	 47.720060	 26.199340	-4.756488	-23.336170	-5.607397	-24.651890	 63.785950	 11.675160	-1.288183	 28.361890	 2.710176	 1.660399	 7.330558	-30.931490	-0.103120	 2.801530	-5.600893	 1.984047	 9.926657	 15.648380	-120.028800	 13.616150	 96.932940	 36.184610	 21.447040	 2.046324	 5.879484	-0.084031	 20.059410	-14.514260	-19.008010	-26.084140	-6.580301	 5.266122	 0.000000	 0.000000	 0.000000	 0.000000	 0.000000	 0.000000	 0.000000	 6.472551	 33.513530	-2.527826	-2.708823	-28.089590	 4.178364	 123.660200	 13.025690	-97.795750	-31.472740	 18.569940	 17.032760	-5.497289	 0.680106	-37.493980	-56.392580	 2.857997	-27.670000	 15.208500	 5.323790	 0.000000	 0.000000	 0.000000	 0.000000	 0.000000	 0.000000	 0.000000
 0.471317	 1.175783	 0.595117	-4.622331	-37.896400	-176.736300	 168.595100	 67.424100	-4.158550	 11.906520	-37.833590	 23.941600	 50.932710	 61.950210	-41.678380	 1.292262	 28.425850	-2.713146	 150.860000	 70.554650	 34.035500	-10.443040	-43.320700	-19.752090	-51.063500	 59.316030	 39.456130	-1.288183	 28.361890	 2.710176	 2.735438	 9.187056	-34.521600	-2.507105	 6.616735	-4.957745	 2.435388	 9.152655	 14.584950	-121.767600	 21.789670	 101.371800	 43.175530	 10.327580	 2.414431	 6.408003	-0.002526	 15.879470	-17.705550	-32.800390	-21.363810	-6.580301	 5.266122	 0.000000	 0.000000	 0.000000	 0.000000	 0.000000	 0.000000	 0.000000	 7.717428	 40.153320	-4.444358	-2.925367	-42.946090	 3.555675	 129.386000	 24.108860	-105.330900	-32.353830	 3.098647	 19.923450	-6.074533	 0.770294	-26.730360	-70.424240	 0.224311	-19.128480	 15.208500	 5.323790	 0.000000	 0.000000	 0.000000	 0.000000	 0.000000	 0.000000	 0.000000
 0.474489	 1.153033	 0.599340	-5.792345	-39.233010	-177.376500	 164.299700	 72.038240	-0.416370	 14.478060	-43.261730	 25.857630	 55.095600	 63.019790	-46.187340	 1.292262	 28.425850	-2.713146	 142.296200	 74.747340	 40.876070	-12.425920	-48.227170	-21.463440	-53.693790	 59.594050	 42.225610	-1.288183	 28.361890	 2.710176	 2.727655	 9.619557	-34.634400	-3.018654	 6.764784	-5.133847	 2.185999	 9.316975	 14.304150	-125.883300	 24.197740	 103.774700	 42.203850	 5.353254	 7.583848	 6.517553	-0.104133	 10.701480	-17.026110	-33.097770	-18.284540	-6.580301	 5.266122	 0.000000	 0.000000	 0.000000	 0.000000	 0.000000	 0.000000	 0.000000	 8.376550	 40.923050	-4.593908	-3.552063	-44.750280	 3.425279	 130.479700	 25.423270	-106.468300	-33.323500	-0.036760	 20.609030	-6.182515	 0.752352	-24.041760	-71.411710	 0.746780	-17.597890	 15.208500	 5.323790	 0.000000	 0.000000	 0.000000	 0.000000	 0.000000	 0.000000	 0.000000
 0.477488	 1.123876	 0.602699	-6.715456	-40.412110	-177.951600	 157.583800	 76.875780	 6.086040	 18.068290	-49.418330	 28.450230	 59.923700	 64.359630	-51.379250	 1.292262	 28.425850	-2.713146	 128.537300	 78.837850	 53.011040	-15.356950	-54.029000	-23.762000	-56.768280	 60.265680	 45.561530	-1.288183	 28.361890	 2.710176	 2.740511	 9.996372	-34.500500	-3.528448	 7.072804	-5.391346	 1.960529	 9.383126	 13.961870	-125.813800	 25.834790	 104.665400	 42.814130	 4.274992	 9.351520	 6.643163	-0.280578	 3.511945	-14.738200	-34.007250	-15.128680	-6.580301	 5.266122	 0.000000	 0.000000	 0.000000	 0.000000	 0.000000	 0.000000	 0.000000	 9.280354	 41.551670	-4.827959	-4.311249	-46.245000	 3.286310	 130.934500	 26.527170	-107.289600	-34.631610	-2.759682	 21.310930	-6.301085	 0.720698	-21.080780	-71.878110	 1.200227	-15.865610	 15.208500	 5.323790	 0.000000	 0.000000	 0.000000	 0.000000	 0.000000	 0.000000	 0.000000
 0.478682	 1.100911	 0.605825	-7.169385	-40.909510	-178.474000	 150.965900	 80.115410	 12.700010	 21.361750	-53.895970	 30.857400	 63.642680	 65.303520	-55.293540	 1.292262	 28.425850	-2.713146	 115.492000	 81.401220	 65.390230	-18.110180	-58.270000	-26.128630	-59.419710	 60.982010	 48.567350	-1.288183	 28.361890	 2.710176	 2.725166	 10.354020	-33.886600	-3.766394	 6.974756	-5.438403	 1.888848	 9.619101	 13.678290	-126.320400	 27.013650	 105.491800	 42.890060	 3.410717	 11.200940	 6.742952	-0.532419	-5.312589	-11.260580	-33.884410	-11.425250	-6.580301	 5.266122	 0.000000	 0.000000	 0.000000	 0.000000	 0.000000	 0.000000	 0.000000	 9.753695	 41.888430	-4.866827	-4.908378	-47.155860	 3.134597	 130.122700	 27.337810	-107.497600	-35.530110	-3.840442	 21.861760	-6.419602	 0.724051	-19.722400	-71.930090	 1.107773	-15.270740	 15.208500	 5.323790	 0.000000	 0.000000	 0.000000	 0.000000	 0.000000	 0.000000	 0.000000
 0.481517	 1.049696	 0.611990	-7.876566	-41.842270	-179.427700	 110.908800	 85.507740	 52.970910	 30.541220	-62.400000	 38.423550	 71.220310	 66.736910	-63.598360	 1.292262	 28.425850	-2.713146	 62.840130	 83.763470	 117.031600	-26.241830	-66.505460	-33.554250	-65.164260	 62.038260	 54.817520	-1.288183	 28.361890	 2.710176	 2.451835	 10.748950	-32.560500	-4.122642	 8.171100	-5.547885	 1.847805	 9.348893	 13.148090	-127.099100	 28.711000	 106.727100	 43.857380	 1.856445	 13.812790	 6.780581	-0.978327	-19.218740	-6.400874	-33.511100	-5.087621	-6.580301	 5.266122	 0.000000	 0.000000	 0.000000	 0.000000	 0.000000	 0.000000	 0.000000	 10.445060	 42.376270	-4.930239	-5.794124	-48.470100	 2.867693	 128.943700	 28.526090	-107.780400	-37.918840	-6.704791	 22.261210	-6.590388	 0.719106	-17.713580	-71.387890	 1.019869	-13.740780	 15.208500	 5.323790	 0.000000	 0.000000	 0.000000	 0.000000	 0.000000	 0.000000	 0.000000
 0.482001	 1.020584	 0.616359	-8.272148	-42.151750	 179.937200	 62.966590	 85.779000	 100.990200	 37.244270	-66.300960	 44.381030	 74.852380	 67.234530	-67.657880	 1.292262	 28.425850	-2.713146	 34.919500	 82.409120	 144.305900	-32.603790	-70.367970	-39.721820	-67.671980	 62.276680	 57.742810	-1.288183	 28.361890	 2.710176	 2.201143	 10.963090	-31.089830	-4.287689	 8.863670	-5.538307	 1.786778	 9.093585	 12.730660	-127.140000	 30.062340	 107.530400	 43.843820	 0.980638	 14.801720	 6.759602	-1.282988	-27.907180	-2.459008	-33.238330	-0.460739	-6.580301	 5.266122	 0.000000	 0.000000	 0.000000	 0.000000	 0.000000	 0.000000	 0.000000	 10.809770	 42.486020	-4.933912	-6.306318	-49.292840	 2.656383	 127.913500	 29.420020	-107.924900	-38.678470	-7.777018	 21.661910	-6.725247	 0.664446	-14.885100	-70.731090	 2.114814	-12.724710	 15.208500	 5.323790	 0.000000	 0.000000	 0.000000	 0.000000	 0.000000	 0.000000	 0.000000
 0.481157	 0.993943	 0.621380	-8.563900	-42.116600	 179.304400	 34.604310	 84.300650	 129.357100	 44.552650	-69.260030	 51.149040	 77.597870	 67.514290	-70.854870	 1.292262	 28.425850	-2.713146	 20.785540	 80.352190	 157.825000	-39.911860	-73.323340	-47.002070	-69.235210	 62.342460	 59.826570	-1.288183	 28.361890	 2.710176	 1.870260	 11.085170	-29.169340	-4.365773	 9.758423	-5.444218	 1.714028	 8.592048	 12.271200	-126.606200	 31.583810	 108.224300	 43.320120	 0.366585	 14.801180	 6.728480	-1.549717	-34.939430	 1.546015	-33.278930	 3.679009	-6.580301	 5.266122	 0.000000	 0.000000	 0.000000	 0.000000	 0.000000	 0.000000	 0.000000	 11.033760	 42.339370	-4.887755	-6.683109	-49.997750	 2.435260	 126.672500	 30.370080	-108.005500	-38.738750	-8.088849	 20.071280	-6.872032	 0.544304	-10.492310	-69.734760	 4.509089	-11.658600	 15.208500	 5.323790	 0.000000	 0.000000	 0.000000	 0.000000	 0.000000	 0.000000	 0.000000
